<?xml version="1.0" encoding="UTF-8" standalone="no"?>
<svg
   id="Layer_1"
   data-name="Layer 1"
   viewBox="0 0 109.42363 57.359277"
   version="1.1"
   width="109.42364"
   height="57.359276"
   xmlns="http://www.w3.org/2000/svg"
   xmlns:svg="http://www.w3.org/2000/svg">
  <defs
     id="defs1">
    <style
       id="style1">
      .cls-1 {
        fill: #6e6f72;
      }

      .cls-2 {
        fill: #0088ce;
      }

      .cls-3 {
        fill: none;
        stroke: #febe10;
        stroke-miterlimit: 10;
        stroke-width: 2.1308px;
      }

      .cls-4 {
        fill: #005fae;
      }

      .cls-5 {
        fill: #febe10;
      }
    </style>
  </defs>
  <g
     id="g77">
    <g
       id="g5"
       transform="translate(47.878939,-0.81261137)">
      <g
         id="g4">
        <path
           class="cls-4"
           d="m 20.2199,1.8626 v 12.577 c 0,3.6427 1.3401,5.9798 4.2947,5.9798 2.9546,0 4.2959,-2.1648 4.2959,-5.9798 V 1.8626 h 6.4951 V 14.268 c 0,7.5604 -4.0203,11.168 -11.0653,11.168 -6.6329,0 -10.5155,-3.3672 -10.5155,-11.3396 V 1.8626 Z"
           id="path1" />
        <path
           class="cls-2"
           d="m 33.9454,56.6212 c -1.0298,0.4864 -3.678,1.1106 -7.0637,1.1106 -10.0431,0 -14.531,-5.4489 -14.531,-11.7307 0,-8.1217 6.7687,-12.4947 14.8997,-12.4947 3.2006,0 5.8864,0.5553 7.0999,1.1802 l -1.4347,5.0668 c -1.251,-0.4858 -3.0907,-0.9715 -5.4077,-0.9715 -4.158,0 -7.836,2.1169 -7.836,6.7676 0,4.0264 2.9057,6.8378 8.0197,6.8378 1.9134,0 4.0105,-0.3472 5.1878,-0.7982 z"
           id="path2" />
        <path
           class="cls-4"
           d="m 61.1437,24.1386 c -1.0196,0.4815 -3.6416,1.0996 -6.9937,1.0996 -9.9437,0 -14.3871,-5.3949 -14.3871,-11.6145 0,-8.0413 6.7017,-12.371 14.7522,-12.371 3.169,0 5.8281,0.5498 7.0296,1.1685 L 60.1242,7.4379 C 58.8856,6.957 57.0641,6.476 54.77,6.476 c -4.1168,0 -7.7584,2.096 -7.7584,6.7006 0,3.9865 2.8769,6.7701 7.9403,6.7701 1.8945,0 3.9708,-0.3438 5.1364,-0.7903 l 1.0555,4.9822 z"
           id="path3" />
        <path
           class="cls-2"
           d="M 60.3754,48.0211 H 48.4396 v 3.9521 h 11.9358 v 5.2233 H 41.9445 V 34.0351 h 18.4309 v 5.2233 H 48.4396 v 3.5394 h 11.9358 z"
           id="path4" />
      </g>
      <line
         class="cls-3"
         x1="13.6727"
         y1="29.618799"
         x2="60.4324"
         y2="29.618799"
         id="line4" />
    </g>
    <g
       id="g76"
       transform="matrix(0.76458646,0,0,0.76458646,-59.120427,-2.6539934)">
      <path
         id="path78"
         d="m 136.3934,32.781149 c -0.0514,-2.941805 -0.13814,-3.80488 -0.63,-6.87 -2.85,-12.9 -14.98,-22.4400002 -28.90999,-22.4400002 l 0.01,0.02 c -14.540005,0 -27.100005,10.3600002 -29.230006,24.1000002 -0.17,1.09 -0.269999,2.2 -0.31,3.29 l 0.06,2.89 c 0.120001,1.67 0.31187,3.332577 0.810001,4.91 l 0.84,2.66 c 0.73944,2.341545 2.04,4.5 3.529999,6.54 l 5.895661,7.430809 18.394345,23.179191 13.84204,-17.411358 10.46795,-13.198642 c 1.44,-1.99 2.59,-4.12 3.45,-6.35 l 0.91,-2.85 c 0.5,-1.92 0.8,-3.9 0.87,-5.9 z"
         style="fill:#ffffff;stroke:none" />
      <path
         class="cls-7"
         d="m 105.1434,32.421149 c -9.499997,-1.81 -17.869997,-3.4 -27.759997,1.35 0.12,1.67 0.39,3.31 0.81,4.91 H 135.5234 c 0.5,-1.92 0.8,-3.9 0.87,-5.9 -12.53,3.2 -22.44,1.31 -31.25,-0.37 z"
         id="path66"
         style="fill:#4c7529" />
      <path
         class="cls-4"
         d="m 106.7034,41.341149 h -4.91 c -0.89,0.25 -1.75,0.52 -2.579997,0.82 -6.24,2.24 -10.92,5.84 -14.09,8.95 l 1.22,1.54 c 3.66,-0.03 7.46,0.23 11.26,0.78 0.34,-0.45 0.72,-0.93 1.12,-1.42 2.149997,-2.61 5.149997,-5.63 9.019997,-8.21 1.33,-0.89 2.77,-1.72 4.31,-2.47 h -5.36 z"
         id="path67"
         style="fill:#739e3d" />
      <path
         class="cls-4"
         d="m 79.033403,41.341149 c 0.86,2.3 2.04,4.5 3.53,6.54 l 0.91,1.14 c 2.66,-2.58 6.27,-5.44 10.87,-7.68 z"
         id="path68"
         style="fill:#739e3d" />
      <path
         class="cls-4"
         d="m 117.7534,51.641149 c -2.24,2.43 -3.61,4.65 -4.29,5.91 2.64,1.05 5.06,2.23 7.22,3.53 l 10.48,-13.2 c 1.44,-1.99 2.59,-4.12 3.45,-6.35 -8.35,2.3 -13.77,6.75 -16.85,10.1 z"
         id="path69"
         style="fill:#739e3d" />
      <path
         class="cls-4"
         d="m 120.0234,41.341149 c -4.28,0.98 -7.94,2.75 -11.01,4.82 -3.63,2.45 -6.42,5.31 -8.41,7.76 0.98,0.18 1.95,0.38 2.93,0.6 0.73,0.16 1.45,0.34 2.16,0.52 1.82,0.47 3.58,1 5.27,1.58 0.34,-0.64 0.87,-1.58 1.62,-2.69 0.32,-0.47 0.67,-0.97 1.07,-1.49 0.6,-0.79 1.29,-1.63 2.08,-2.5 2.46,-2.69 6.29,-6.03 11.76,-8.59 h -7.45 z"
         id="path70"
         style="fill:#739e3d" />
      <path
         class="cls-3"
         d="m 88.463403,55.321149 18.389997,23.17 12.16,-15.32 c -4.35,-2.57 -9.84,-4.66 -16.08,-6.06 -4.809997,-1.08 -9.739997,-1.67 -14.479997,-1.78 z"
         id="path71"
         style="fill:#9c6b28;stroke:none;stroke-width:1;stroke-dasharray:none" />
      <path
         class="cls-1"
         d="m 136.3534,30.061149 c -0.02,-0.24 -0.03,-0.47 -0.05,-0.71 l -8.76,-5.34 c -2.21,-1.33 -4.96,-1.31 -7.16,0.04 l -10.79,6.5 c 7.91,1.41 16.3,2.31 26.77,-0.49 z"
         id="path72"
         style="fill:#e4891b" />
      <path
         class="cls-5"
         d="m 106.8634,3.4911488 c -14.539997,0 -27.099997,10.3600002 -29.229997,24.1000002 -0.17,1.09 -0.27,2.2 -0.31,3.29 10.23,-4.51 19.05,-2.83 28.309997,-1.07 0,0 0,0 0.01,0 l 13.34,-8.03 c 3.04,-1.87 6.85,-1.9 9.92,-0.05 l 6.86,4.18 c -2.85,-12.9 -14.98,-22.4400002 -28.91,-22.4400002 z m -0.47,4.98 c 3.36,0 6.08,2.7200002 6.08,6.0800002 0,0.32 -0.03,0.64 -0.08,0.95 -0.46,2.9 -2.97,5.12 -6,5.12 -2.39,0 -4.45,-1.38 -5.45,-3.38 -0.41,-0.81 -0.63,-1.73 -0.63,-2.7 0,-3.36 2.72,-6.0800002 6.08,-6.0800002 z"
         id="path73"
         style="fill:#005fae" />
      <path
         class="cls-6"
         d="m 109.5734,30.551149 10.79,-6.5 c 2.2,-1.36 4.95,-1.37 7.16,-0.04 l 8.76,5.34 c 0.02,0.24 0.04,0.47 0.05,0.71 -10.47,2.81 -18.87,1.9 -26.77,0.49 z"
         id="path74"
         style="fill:#e38a25" />
    </g>
  </g>
</svg>
